<?xml version="1.0" encoding="UTF-8" standalone="no"?>
<svg
   height="512pt"
   viewBox="0 0 512 512"
   width="512pt"
   version="1.1"
   id="svg20"
   sodipodi:docname="Constitutional Amendments.svg"
   inkscape:export-filename="C:\Users\MeAndUnique\source\repos\ConstitutionalAmendments\.resources\ancient-scroll.png"
   inkscape:export-xdpi="5.625"
   inkscape:export-ydpi="5.625"
   inkscape:version="1.1 (c68e22c387, 2021-05-23)"
   xmlns:inkscape="http://www.inkscape.org/namespaces/inkscape"
   xmlns:sodipodi="http://sodipodi.sourceforge.net/DTD/sodipodi-0.dtd"
   xmlns="http://www.w3.org/2000/svg"
   xmlns:svg="http://www.w3.org/2000/svg">
  <defs
     id="defs24" />
  <sodipodi:namedview
     id="namedview22"
     pagecolor="#505050"
     bordercolor="#ffffff"
     borderopacity="1"
     inkscape:pageshadow="0"
     inkscape:pageopacity="0"
     inkscape:pagecheckerboard="1"
     inkscape:document-units="pt"
     showgrid="false"
     inkscape:zoom="0.54785156"
     inkscape:cx="97.654189"
     inkscape:cy="382.40285"
     inkscape:window-width="1920"
     inkscape:window-height="1017"
     inkscape:window-x="-8"
     inkscape:window-y="-8"
     inkscape:window-maximized="1"
     inkscape:current-layer="layer2"
     inkscape:object-nodes="false"
     inkscape:snap-nodes="false"
     inkscape:snap-others="false"
     inkscape:snap-global="false" />
  <g
     inkscape:groupmode="layer"
     id="layer3"
     inkscape:label="Base"
     style="display:inline">
    <path
       d="m 446,390 h 2 V 163.66797 L 411.33203,137 l 32,-20 -22,-16.66797 V 79 H 448 V 59 C 448,31.9375 426.0625,10 399,10 H 58 l 0.0078,0.01953 C 57.675781,10.015625 57.351562,10 57.023438,10 31.054688,10 10,37.488281 10,71.398438 10,99.34375 27.351562,122 48.753906,122 h 65.324224 v 168.5 l 30.58593,19.83203 -30.58593,27.33203 V 427.5 c 0,48.83203 25.54296,74.5 57.05468,74.5 2.3086,0 4.57813,-0.22656 6.79688,-0.64844 L 177.89453,502 H 446 c 30.92969,0 56,-25.07031 56,-56 0,-30.92969 -25.07031,-56 -56,-56 z m 0,0"
       fill="#feda9b"
       id="path2" />
    <path
       d="M 458,381.11328 V 163.66797 c 0,-3.19922 -1.53125,-6.20703 -4.11719,-8.08985 l -24.6875,-17.94921 19.4375,-12.14844 c 2.78906,-1.74219 4.54297,-4.7461 4.69141,-8.03125 0.14453,-3.28516 -1.33203,-6.4336 -3.95313,-8.41797 L 431.33203,95.363281 V 89 H 448 c 5.52344,0 10,-4.476562 10,-10 V 59 C 458,26.46875 431.53125,0 399,0 H 58 C 57.898438,0 57.804688,0.0117188 57.707031,0.015625 57.476562,0.0117188 57.253906,0 57.023438,0 41.277344,0 26.648438,7.777344 15.832031,21.902344 5.621094,35.234375 0,52.8125 0,71.398438 0,104.8125 21.871094,132 48.753906,132 h 55.324224 v 158.5 c 0,3.39062 1.71484,6.54687 4.55859,8.39062 l 19.60547,12.71094 -20.82813,18.60938 c -2.12109,1.89453 -3.33593,4.60937 -3.33593,7.45703 v 86.66406 c 0,0.53906 0.0547,1.06641 0.13671,1.58203 -0.082,0.51953 -0.13671,1.04688 -0.13671,1.58594 0,25.44141 6.57031,46.85547 18.99609,61.92578 C 135.07812,503.98047 152.14844,512 171.13672,512 H 446 c 36.39453,0 66,-29.60547 66,-66 0,-32.29297 -23.32031,-59.22656 -54,-64.88672 z M 82.074219,112 C 85.019531,106.44922 86.6875,100.04297 86.6875,93.160156 86.6875,70.105469 71.753906,54 50.367188,54 c -5.523438,0 -10,4.476562 -10,10 0,5.523438 4.476562,10 10,10 C 60.585938,74 66.6875,81.164062 66.6875,93.160156 66.6875,105.39844 57.445312,112 48.753906,112 33.167969,112 20,93.40625 20,71.398438 20,43.058594 36.609375,20 57.023438,20 71.164062,20 82.21875,24.394531 89.871094,33.058594 99.300781,43.726562 104.07813,61.035156 104.07813,84.5 V 112 Z m 56.429691,364.69922 c -9.4375,-11.44531 -14.42578,-28.45703 -14.42578,-49.19922 0,-0.53906 -0.0547,-1.06641 -0.13672,-1.58594 0.082,-0.51562 0.13672,-1.04297 0.13672,-1.58203 v -82.19141 l 27.24999,-24.35156 c 2.32422,-2.07422 3.55079,-5.11719 3.3086,-8.22656 -0.23828,-3.10547 -1.91406,-5.92578 -4.52735,-7.62109 l -26.03124,-16.875 V 84.5 c 0,-28.371094 -6.41797,-50.066406 -19.0625,-64.5 H 399 c 21.50391,0 39,17.496094 39,39 v 10 h -16.66797 c -5.51953,0 -10,4.476562 -10,10 v 21.33203 c 0,3.13281 1.46875,6.08203 3.96485,7.97266 l 10.43359,7.90625 -19.69531,12.30859 c -2.82032,1.76172 -4.57813,4.80859 -4.69532,8.12891 -0.11718,3.32031 1.42578,6.48437 4.11329,8.4375 L 438,168.75781 V 380 H 183.76563 c -0.49219,0 -0.97657,0.0469 -1.45313,0.11719 C 181.35156,380.04687 180.38281,380 179.40234,380 c -21.26953,0 -37.93359,17.0625 -37.93359,38.83984 0,23.0586 14.93359,39.16016 36.32031,39.16016 5.52344,0 10,-4.47656 10,-10 0,-5.52344 -4.47656,-10 -10,-10 -10.21875,0 -16.32031,-7.16406 -16.32031,-19.16016 0,-12.23828 9.24219,-18.83984 17.93359,-18.83984 15.58594,0 28.75391,18.59375 28.75391,40.60156 0,28.33985 -16.60547,51.39844 -37.01953,51.39844 -13.09375,0 -24.37891,-5.28906 -32.63281,-15.30078 z M 446,492 H 210.79297 c 0.51562,-0.625 1.03125,-1.25 1.53125,-1.90234 9.58594,-12.51563 15.125,-28.77735 15.76953,-46.09766 H 384 c 5.52344,0 10,-4.47656 10,-10 0,-5.52344 -4.47656,-10 -10,-10 H 226.28125 C 224.21094,414.96875 220.5,406.78516 215.5625,400 H 446 c 25.36328,0 46,20.63672 46,46 0,25.36328 -20.63672,46 -46,46 z"
       id="path4"
       sodipodi:nodetypes="cscccccccssssscscsscscccsscscsssccsssssssscscccscscccccscsscssscccscccscssssssssscscccsssccsss" />
    <path
       d="m 422.87109,424 c -2.63281,0 -5.21093,1.07031 -7.07031,2.92969 -1.85937,1.85937 -2.92969,4.4414 -2.92969,7.07031 0,2.62891 1.06641,5.21094 2.92969,7.07031 1.85938,1.85938 4.4375,2.92969 7.07031,2.92969 2.62891,0 5.20703,-1.07031 7.06641,-2.92969 1.86328,-1.85937 2.93359,-4.4414 2.93359,-7.07031 0,-2.62891 -1.07031,-5.21094 -2.93359,-7.07031 C 428.07812,425.07031 425.5,424 422.87109,424 Z m 0,0"
       id="path18" />
  </g>
  <g
     inkscape:groupmode="layer"
     id="layer2"
     inkscape:label="Layer 2"
     style="display:inline">
    <g
       id="g942"
       transform="matrix(0.75,0,0,0.75,101.00934,37.988155)">
      <g
         id="g873">
	<g
   transform="translate(1,1)"
   id="g869">
		<path
   style="fill:#f44335"
   d="M 173.935,428.312 V 472.6 c -0.079,16.462 -13.405,29.788 -29.867,29.867 -16.487,-0.018 -29.849,-13.379 -29.867,-29.867 v -98.133 c 0.768,1.28 1.621,2.475 2.475,3.67 0.683,1.024 1.365,2.048 2.133,2.987 0.162,0.184 0.305,0.384 0.427,0.597 0.768,1.024 1.536,2.048 2.389,3.072 0.894,1.252 1.863,2.449 2.901,3.584 0.53,0.739 1.13,1.425 1.792,2.048 0.235,0.303 0.491,0.588 0.768,0.853 0.427,0.597 0.939,1.109 1.451,1.707 v 0.085 l 0.085,0.085 0.683,0.683 c 0.171,0.256 0.427,0.427 0.597,0.683 0.085,0.085 0.171,0.085 0.171,0.171 0.374,0.476 0.773,0.932 1.195,1.365 1.621,1.792 3.328,3.499 5.12,5.12 0.242,0.299 0.53,0.558 0.853,0.768 l 0.683,0.683 c 0,0.085 0.085,0.171 0.171,0.085 0.427,0.513 0.939,0.939 1.365,1.365 1.284,1.284 2.653,2.481 4.096,3.584 0.248,0.175 0.477,0.375 0.683,0.597 0.101,0.158 0.251,0.278 0.427,0.341 2.219,1.792 4.437,3.584 6.741,5.376 l 0.085,0.085 c 2.304,1.707 4.608,3.328 6.912,4.864 0.085,0 0.085,0 0.085,0.085 2.304,1.536 4.693,2.987 6.997,4.437 0.15,0.142 0.323,0.258 0.512,0.341 1.28,0.768 2.56,1.536 3.925,2.304 h 0.085 c 0.54,0.363 1.111,0.677 1.707,0.939 0.13,0.104 0.274,0.19 0.427,0.256 0.586,0.28 1.156,0.594 1.707,0.939 0,0.023 0.009,0.044 0.025,0.06 0.016,0.016 0.038,0.027 0.061,0.026 z"
   id="path841" />

		<path
   style="fill:#c52828"
   d="m 368.751,231.107 c 1.043,-3.31 1.533,-6.77 1.451,-10.24 0,-25.6 -25.6,-59.733 -51.2,-59.733 l 3.925,-51.2 c 2.924,-8.224 4.48,-16.872 4.608,-25.6 0,-19.968 -15.616,-39.851 -42.667,-47.701 V 24.6 C 284.84,15.186 277.216,7.561 267.801,7.533 258.416,7.63 250.831,15.214 250.734,24.6 v 8.96 c -7.466,0.567 -14.803,2.264 -21.76,5.035 l -3.84,-9.643 -3.584,-8.96 C 218.788,12.989 211.016,9.385 203.886,11.8 c -3.681,1.2 -6.685,3.895 -8.277,7.424 -1.521,3.074 -1.826,6.609 -0.853,9.899 l 8.107,28.331 c -24.32,28.331 -28.672,75.435 -28.928,109.739 v 18.432 c -5.461,-2.048 -11.179,-4.523 -17.067,-7.424 -0.703,-0.372 -1.448,-0.659 -2.219,-0.853 -0.085,0 -0.085,0.085 -0.171,0.085 -2.004,-0.519 -4.077,-0.721 -6.144,-0.597 -4.537,0.236 -8.992,1.306 -13.141,3.157 -7.874,3.348 -15.008,8.22 -20.992,14.336 v -0.171 c -17.92,17.749 -34.133,50.176 -34.133,103.509 0,102.4 17.067,85.333 17.067,85.333 1.199,0.006 2.398,-0.08 3.584,-0.256 3.648,9.089 8.163,17.804 13.483,26.027 2.109,3.247 4.388,6.38 6.827,9.387 0.122,0.213 0.265,0.413 0.427,0.597 0,0.085 0.085,0.171 0.171,0.256 0.085,0.085 0.085,0.171 0.256,0.256 0.683,0.939 1.451,1.877 2.218,2.816 0.17,0.178 0.314,0.379 0.427,0.597 l 1.792,2.048 c 0.234,0.303 0.491,0.588 0.768,0.853 0.427,0.597 0.939,1.109 1.451,1.707 v 0.085 l 0.085,0.085 c 0.256,0.341 0.597,0.597 0.853,0.939 0.182,0.096 0.331,0.245 0.427,0.427 h 0.085 c 0,0.085 0.085,0.085 0.085,0.171 0.391,0.348 0.761,0.719 1.109,1.109 l 0.085,0.085 v 0.085 l 1.195,1.195 c 1.28,1.365 2.645,2.731 3.925,4.011 0.512,0.512 1.024,0.939 1.536,1.451 0.512,0.512 1.024,0.939 1.536,1.451 1.284,1.284 2.653,2.481 4.096,3.584 0.248,0.175 0.477,0.375 0.683,0.597 0.101,0.158 0.251,0.278 0.427,0.341 2.219,1.792 4.437,3.584 6.741,5.376 l 0.085,0.085 c 2.304,1.707 4.608,3.328 6.912,4.864 0.085,0 0.085,0 0.085,0.085 2.304,1.536 4.693,2.987 6.997,4.437 0.15,0.142 0.323,0.258 0.512,0.341 1.28,0.768 2.56,1.536 3.925,2.304 h 0.085 c 0.54,0.363 1.111,0.677 1.707,0.939 0.13,0.104 0.274,0.19 0.427,0.256 0.586,0.28 1.156,0.594 1.707,0.939 0,0.023 0.009,0.044 0.025,0.06 0.016,0.016 0.038,0.024 0.06,0.024 v 9.984 c 0.018,11.526 6.657,22.016 17.067,26.965 3.99,1.93 8.368,2.923 12.8,2.901 11.453,0.033 21.88,-6.596 26.709,-16.981 h 0.085 c 0.427,-0.768 0.683,-1.536 1.024,-2.304 6.294,1.302 12.69,2.044 19.115,2.219 17.58,-0.056 35.125,1.573 52.395,4.864 5.973,1.194 11.435,2.389 16.725,3.669 12.8,2.987 24.064,5.973 35.499,7.509 4.919,0.689 9.881,1.031 14.848,1.024 25.6,0 59.733,-17.067 59.733,-93.867 10e-4,-44.797 -23.21,-121.341 -61.183,-177.49 z m -168.192,38.314 h 0.085 l -0.085,0.085 z m 126.72,-23.637 c -0.576,-0.073 -1.147,-0.187 -1.707,-0.341 0.597,0.085 1.109,0.171 1.707,0.256 z"
   id="path843" />

		<path
   style="fill:#f44335"
   d="m 351.94,244.845 c -2.901,-4.693 -5.803,-9.301 -8.789,-13.739 1.043,-3.31 1.533,-6.77 1.451,-10.24 -1.318,-18.374 -9.882,-35.472 -23.808,-47.531 -7.326,-7.287 -17.074,-11.63 -27.392,-12.203 l 3.84,-49.579 0.085,-1.621 c 2.924,-8.224 4.48,-16.872 4.608,-25.6 0,-19.968 -15.616,-39.851 -42.667,-47.701 V 24.6 c -0.006,-4.123 -1.524,-8.1 -4.267,-11.179 -0.671,0.738 -1.271,1.538 -1.792,2.389 -0.42,0.684 -0.791,1.397 -1.109,2.133 -0.43,1.051 -0.773,2.135 -1.024,3.243 0.012,0.094 -0.02,0.188 -0.085,0.256 0.009,0.231 -0.02,0.461 -0.085,0.683 -0.1,0.821 -0.157,1.647 -0.171,2.475 v 8.96 c -7.466,0.567 -14.803,2.264 -21.76,5.035 l -3.84,-9.643 v 4.608 c -7.466,0.567 -14.803,2.264 -21.76,5.035 l -7.424,-18.603 c -0.085,-0.256 -0.256,-0.512 -0.341,-0.768 -0.401,0.789 -0.715,1.619 -0.939,2.475 -0.085,0.171 -0.085,0.341 -0.171,0.427 -0.51,2.316 -0.422,4.724 0.256,6.997 l 8.107,28.331 c -24.32,28.331 -28.672,75.435 -28.928,109.739 v 18.432 c -5.461,-2.048 -11.179,-4.523 -17.067,-7.424 -0.703,-0.372 -1.448,-0.659 -2.219,-0.853 -0.085,0 -0.085,0.085 -0.171,0.085 -2.004,-0.519 -4.077,-0.721 -6.144,-0.597 v 8.789 c -4.267,-1.621 -8.619,-3.413 -13.141,-5.632 -7.874,3.348 -15.008,8.22 -20.992,14.336 v -0.171 c -17.92,17.749 -34.133,50.176 -34.133,103.509 0,102.4 17.067,85.333 17.067,85.333 1.199,0.006 2.398,-0.08 3.584,-0.256 3.648,9.089 8.163,17.804 13.483,26.027 2.109,3.247 4.388,6.38 6.827,9.387 0.122,0.213 0.265,0.413 0.427,0.597 0,0.085 0.085,0.171 0.171,0.256 0.085,0.085 0.085,0.171 0.256,0.256 0.683,0.939 1.451,1.877 2.218,2.816 0.17,0.178 0.314,0.379 0.427,0.597 l 1.792,2.048 c 0.234,0.303 0.491,0.588 0.768,0.853 0.427,0.597 0.939,1.109 1.451,1.707 v 0.085 l 0.085,0.085 c 0.256,0.341 0.597,0.597 0.853,0.939 0.182,0.096 0.331,0.245 0.427,0.427 h 0.085 c 0,0.085 0.085,0.085 0.085,0.171 0.391,0.348 0.761,0.719 1.109,1.109 l 0.085,0.085 v 0.085 l 1.195,1.195 c 1.28,1.365 2.645,2.731 3.925,4.011 0.512,0.512 1.024,0.939 1.536,1.451 0.512,0.512 1.024,0.939 1.536,1.451 1.284,1.284 2.653,2.481 4.096,3.584 0.248,0.175 0.477,0.375 0.683,0.597 0.101,0.158 0.251,0.278 0.427,0.341 2.219,1.792 4.437,3.584 6.741,5.376 l 0.085,0.085 c 2.304,1.707 4.608,3.328 6.912,4.864 0.085,0 0.085,0 0.085,0.085 2.304,1.536 4.693,2.987 6.997,4.437 0.15,0.142 0.323,0.258 0.512,0.341 1.28,0.768 2.56,1.536 3.925,2.304 h 0.085 c 0.54,0.363 1.111,0.677 1.707,0.939 0.13,0.104 0.274,0.19 0.427,0.256 0.586,0.28 1.156,0.594 1.707,0.939 0,0.023 0.009,0.044 0.025,0.06 0.016,0.016 0.038,0.024 0.06,0.024 v 9.984 c 0.018,11.526 6.657,22.016 17.067,26.965 6.95,-3.296 12.339,-9.174 15.019,-16.384 6.294,1.302 12.69,2.044 19.115,2.219 1.792,0 3.584,0 5.376,0.085 h 0.085 c 15.755,0.207 31.46,1.806 46.933,4.779 5.973,1.194 11.435,2.389 16.725,3.669 16.387,4.818 33.287,7.683 50.347,8.533 3.608,-0.01 7.207,-0.353 10.752,-1.024 23.467,-4.693 48.981,-26.453 48.981,-92.843 10e-4,-41.213 -19.711,-109.394 -52.394,-163.752 z m -176.981,24.662 v -0.085 h 0.085 z m 126.72,-23.723 c -0.576,-0.073 -1.147,-0.187 -1.707,-0.341 0.597,0.085 1.109,0.171 1.707,0.256 z"
   id="path845" />

		<path
   style="fill:#ad1457"
   d="m 327.535,84.333 c -0.128,8.728 -1.684,17.376 -4.608,25.6 -1.621,0 -3.243,0 -4.864,0.085 h -2.389 c -0.853,0 -1.707,0 -2.56,0.085 -1.365,0 -2.816,0.085 -4.267,0.171 -1.365,0.085 -2.645,0.171 -4.011,0.341 -1.195,0.085 -2.389,0.171 -3.584,0.341 -1.365,0.171 -2.645,0.341 -4.011,0.597 l 0.085,-1.621 c 2.924,-8.224 4.48,-16.872 4.608,-25.6 0,-19.968 -15.616,-39.851 -42.667,-47.701 V 24.6 c -0.006,-4.123 -1.524,-8.1 -4.267,-11.179 3.203,-3.737 7.878,-5.888 12.8,-5.888 9.414,0.028 17.039,7.652 17.067,17.067 v 12.032 c 27.052,7.851 42.668,27.733 42.668,47.701 z"
   id="path847" />

		<path
   style="fill:#e91e63"
   d="m 301.935,84.333 c -0.128,8.728 -1.684,17.376 -4.608,25.6 l -0.085,1.621 c -4.379,0.589 -8.694,1.588 -12.885,2.987 -1.362,0.378 -2.701,0.834 -4.011,1.365 -0.321,0.089 -0.635,0.203 -0.939,0.341 -1.621,0.597 -3.072,1.28 -4.693,2.048 -0.427,0.171 -0.939,0.427 -1.451,0.683 -1.144,0.531 -2.255,1.129 -3.328,1.792 -1.147,0.62 -2.258,1.304 -3.328,2.048 -1.379,0.772 -2.692,1.657 -3.925,2.645 -4.289,2.974 -8.289,6.345 -11.947,10.069 -1.28,1.28 -2.645,2.645 -3.84,4.011 -0.22,0.177 -0.42,0.378 -0.597,0.597 -2.048,2.219 -4.011,4.437 -5.803,6.656 -1.365,1.536 -2.56,3.072 -3.755,4.608 -1.109,1.365 -2.133,2.731 -3.072,4.096 -1.024,1.365 -2.048,2.731 -2.987,4.096 -1.877,2.731 -3.584,5.461 -5.205,8.107 -0.853,1.28 -1.621,2.645 -2.304,3.925 0,0.085 -0.085,0.171 -0.171,0.256 -0.194,0.444 -0.422,0.872 -0.683,1.28 -1.707,3.413 -3.243,6.656 -4.523,9.728 -0.459,1.057 -0.858,2.14 -1.195,3.243 -0.746,2.082 -1.317,4.223 -1.707,6.4 -0.219,0.897 -0.361,1.81 -0.427,2.731 l 2.133,17.067 c -0.768,-0.341 -17.579,-17.664 -18.432,-18.005 -0.341,-0.085 -0.768,-0.256 -1.109,-0.341 l -2.048,-0.768 c -5.887,-2.048 -12.459,-4.267 -19.456,-6.912 -0.128,-0.021 -0.247,-0.081 -0.341,-0.171 -0.085,0 -0.256,-0.085 -0.341,-0.085 -0.32,-0.126 -0.633,-0.269 -0.939,-0.427 v -18.432 c 0.256,-34.304 4.608,-81.408 28.928,-109.739 l -8.107,-28.331 c -0.678,-2.273 -0.766,-4.681 -0.256,-6.997 0.085,-0.171 0.085,-0.341 0.171,-0.427 0.223,-0.856 0.538,-1.686 0.939,-2.475 1.592,-3.529 4.597,-6.224 8.277,-7.424 7.13,-2.415 14.902,1.189 17.664,8.192 l 3.584,8.96 3.84,9.643 c 6.957,-2.77 14.294,-4.468 21.76,-5.035 V 24.6 c 0.014,-0.827 0.071,-1.653 0.171,-2.475 0.065,-0.221 0.094,-0.452 0.085,-0.683 0.065,-0.068 0.097,-0.162 0.085,-0.256 0.251,-1.107 0.594,-2.192 1.024,-3.243 0.319,-0.737 0.689,-1.45 1.109,-2.133 0.521,-0.851 1.121,-1.651 1.792,-2.389 2.742,3.078 4.26,7.056 4.267,11.179 v 12.032 c 27.053,7.851 42.669,27.733 42.669,47.701 z"
   id="path849" />

		<g
   id="g855">
			<path
   style="fill:#f44335"
   d="M 114.201,194.157 V 75.8 c 0,-20.48 -12.288,-40.96 -22.101,-54.101 -2.047,-2.66 -2.402,-6.254 -0.915,-9.263 1.487,-3.01 4.556,-4.911 7.913,-4.902 h 33.451 c 11.242,0.023 21.618,6.04 27.221,15.787 9.273,15.936 14.161,34.043 14.165,52.48 v 119.467 z"
   id="path851" />

			<path
   style="fill:#f44335"
   d="m 379.503,137.667 c -0.066,6.038 -2.701,11.761 -7.246,15.736 -4.545,3.975 -10.569,5.824 -16.562,5.085 -12.247,-2.42 -24.92,-1.506 -36.693,2.645 l 0.171,0.853 0.256,1.365 0.256,1.365 0.853,5.717 c 0.388,3.143 0.587,6.306 0.597,9.472 v 1.451 c 0.014,0.372 -0.015,0.744 -0.085,1.109 v 0.939 c 0,0.512 -0.085,0.939 -0.085,1.451 -0.015,0.601 -0.072,1.199 -0.171,1.792 -0.085,1.109 -0.171,2.304 -0.341,3.499 -0.085,0.597 -0.171,1.195 -0.256,1.707 v 0.085 c -0.341,1.707 -0.683,3.328 -1.109,5.035 l -0.256,0.512 c -0.422,1.509 -0.935,2.991 -1.536,4.437 -0.175,0.506 -0.404,0.993 -0.683,1.451 -0.341,0.597 -0.597,1.195 -0.939,1.792 -0.341,0.597 -0.597,1.109 -0.939,1.621 -0.202,0.502 -0.491,0.964 -0.853,1.365 l -0.512,0.768 c -0.171,0.171 -0.256,0.256 -0.256,0.341 l -0.256,0.256 c -0.729,0.994 -1.527,1.935 -2.389,2.816 -0.645,0.639 -1.244,1.324 -1.792,2.048 -0.218,0.153 -0.394,0.359 -0.512,0.597 l -0.256,0.256 c -0.645,0.769 -1.217,1.598 -1.707,2.475 -0.021,0.128 -0.081,0.247 -0.171,0.341 -12.645,1.98 -25.431,2.921 -38.229,2.816 -1.621,0 -3.413,-0.085 -5.205,-0.256 -9.287,-0.881 -18.414,-3.004 -27.136,-6.315 -1.195,-0.427 -2.304,-0.853 -3.413,-1.365 -1.195,-0.512 -2.389,-1.024 -3.499,-1.536 -0.527,-0.192 -1.041,-0.42 -1.536,-0.683 -2.166,-1.084 -4.274,-2.28 -6.315,-3.584 -0.085,-0.085 -0.085,-0.085 -0.171,-0.085 v -0.085 h -0.085 v -0.085 c -1.44,-1.747 -3.104,-3.296 -4.949,-4.608 l -0.085,-0.085 c -0.932,-2.177 -1.257,-4.566 -0.939,-6.912 h 0.085 c 0.085,-0.853 0.171,-1.792 0.341,-2.731 0.39,-2.177 0.961,-4.318 1.707,-6.4 0.337,-1.103 0.735,-2.185 1.195,-3.243 1.28,-3.072 2.816,-6.315 4.523,-9.728 0.26,-0.408 0.489,-0.836 0.683,-1.28 0.085,-0.085 0.171,-0.171 0.171,-0.256 0.683,-1.28 1.451,-2.645 2.304,-3.925 1.621,-2.645 3.328,-5.376 5.205,-8.107 0.939,-1.365 1.963,-2.731 2.987,-4.096 0.939,-1.365 1.963,-2.731 3.072,-4.096 1.195,-1.536 2.389,-3.072 3.755,-4.608 1.792,-2.219 3.755,-4.437 5.803,-6.656 0.177,-0.22 0.378,-0.42 0.597,-0.597 1.195,-1.365 2.56,-2.731 3.84,-4.011 3.657,-3.724 7.657,-7.095 11.947,-10.069 1.254,-0.96 2.565,-1.843 3.925,-2.645 1.07,-0.744 2.181,-1.428 3.328,-2.048 1.073,-0.663 2.184,-1.261 3.328,-1.792 0.512,-0.256 1.024,-0.512 1.451,-0.683 1.621,-0.768 3.072,-1.451 4.693,-2.048 0.304,-0.138 0.617,-0.252 0.939,-0.341 1.31,-0.531 2.649,-0.987 4.011,-1.365 5.496,-1.763 11.157,-2.964 16.896,-3.584 1.195,-0.171 2.389,-0.256 3.584,-0.341 1.365,-0.171 2.645,-0.256 4.011,-0.341 1.451,-0.085 2.901,-0.171 4.267,-0.171 0.853,-0.085 1.707,-0.085 2.56,-0.085 h 2.389 c 1.621,-0.085 3.243,-0.085 4.864,-0.085 h 4.608 c 12.968,0.639 25.754,3.317 37.888,7.936 8.385,2.983 14.011,10.894 14.077,19.797 z"
   id="path853" />

		</g>

		<path
   style="fill:#c52828"
   d="m 379.503,137.667 c -0.066,6.038 -2.701,11.761 -7.246,15.736 -4.545,3.975 -10.569,5.824 -16.562,5.085 -4.443,-0.606 -8.915,-0.976 -13.397,-1.109 5,-1.874 9.112,-5.56 11.52,-10.325 1.492,-2.905 2.281,-6.121 2.304,-9.387 -0.066,-8.903 -5.692,-16.814 -14.08,-19.797 -10.322,-3.827 -21.065,-6.406 -32,-7.68 1.024,0 2.048,-0.085 3.072,-0.085 0.853,-0.085 1.707,-0.085 2.56,-0.085 h 2.389 c 1.621,-0.085 3.243,-0.085 4.864,-0.085 h 4.608 c 12.968,0.639 25.754,3.317 37.888,7.936 8.388,2.982 14.014,10.893 14.08,19.796 z"
   id="path857" />

		<g
   id="g863">
			<path
   style="fill:#e91e63"
   d="m 231.62,483.181 c -5.085,13.483 -19.088,21.396 -33.261,18.796 -14.173,-2.6 -24.456,-14.968 -24.424,-29.378 v -9.984 c 2.56,1.451 5.205,2.816 7.851,4.011 h 0.085 c 5.104,2.539 10.346,4.79 15.701,6.741 l 0.085,0.085 c 2.475,0.939 4.949,1.877 7.424,2.645 2.389,0.853 4.864,1.621 7.168,2.304 2.133,0.683 4.181,1.28 6.229,1.792 0.597,0.171 1.195,0.256 1.707,0.427 1.877,0.512 3.669,0.939 5.461,1.28 2.049,0.513 4.097,0.94 5.974,1.281 z"
   id="path859" />

			<path
   style="fill:#e91e63"
   d="m 225.135,220.867 c 0,42.667 -76.8,93.867 -93.867,110.933 -2.077,2.11 -3.857,4.493 -5.291,7.083 -0.773,1.275 -1.43,2.618 -1.963,4.011 -2.498,6.247 -4.551,12.663 -6.144,19.2 -0.427,1.536 -0.939,3.072 -1.451,4.523 -0.075,0.353 -0.19,0.697 -0.341,1.024 v 0.085 c -0.085,0.341 -0.256,0.683 -0.341,0.939 -0.493,1.408 -1.092,2.778 -1.792,4.096 -0.597,1.024 -1.195,1.963 -1.792,2.901 -0.643,0.908 -1.356,1.764 -2.133,2.56 -0.776,0.774 -1.634,1.461 -2.56,2.048 -1.503,0.936 -3.144,1.627 -4.864,2.048 -0.616,0.163 -1.244,0.277 -1.877,0.341 v 0.085 c -1.186,0.176 -2.385,0.262 -3.584,0.256 0,0 -17.067,17.067 -17.067,-85.333 0,-53.333 16.213,-85.76 34.133,-103.509 v 0.171 c 15.104,-14.933 31.403,-19.371 40.277,-16.896 0.085,0 0.085,-0.085 0.171,-0.085 0.771,0.195 1.516,0.481 2.219,0.853 5.888,2.901 11.605,5.376 17.067,7.424 v 0.085 c 0.341,0.085 0.597,0.256 0.939,0.341 0.085,0 0.256,0.085 0.341,0.085 0.094,0.09 0.213,0.15 0.341,0.171 6.997,2.645 13.568,4.864 19.456,6.912 l 2.048,0.768 c 0.341,0.085 0.768,0.256 1.109,0.341 0.853,0.341 1.707,0.597 2.475,0.939 h 0.085 c 5.131,1.758 10.054,4.076 14.677,6.912 l 0.085,0.085 c 1.845,1.312 3.509,2.861 4.949,4.608 v 0.085 l 0.085,0.085 c 0.597,0.853 1.28,1.707 1.877,2.645 0.085,0.085 0.085,0.171 0.171,0.256 0.557,0.976 1.014,2.005 1.365,3.072 0.414,1.189 0.7,2.42 0.853,3.67 0.25,1.38 0.364,2.78 0.344,4.182 z"
   id="path861" />

		</g>

		<path
   style="fill:#ad1457"
   d="m 370.201,220.867 c 0.082,3.47 -0.408,6.93 -1.451,10.24 -0.256,0.597 -0.427,1.195 -0.683,1.792 -0.67,1.685 -1.622,3.243 -2.816,4.608 -0.512,0.597 -1.024,1.109 -1.536,1.621 -0.431,0.516 -0.951,0.949 -1.536,1.28 -1.739,1.259 -3.632,2.292 -5.632,3.072 -0.73,0.357 -1.505,0.616 -2.304,0.768 -0.742,0.289 -1.515,0.489 -2.304,0.597 -2.901,-4.693 -5.803,-9.301 -8.789,-13.739 1.043,-3.31 1.533,-6.77 1.451,-10.24 -1.318,-18.374 -9.882,-35.472 -23.808,-47.531 0,-1.024 -0.171,-1.963 -0.256,-2.901 -0.256,-2.219 -0.597,-4.181 -0.853,-5.717 l -0.256,-1.365 -0.256,-1.365 -0.171,-0.853 c 25.6,-10e-4 51.2,34.133 51.2,59.733 z"
   id="path865" />

		<path
   style="fill:#e91e63"
   d="m 351.94,244.845 c -0.085,0.085 -0.085,0.085 -0.171,0.085 -2.277,0.521 -4.586,0.891 -6.912,1.109 -0.821,0.102 -1.647,0.159 -2.475,0.171 -0.853,0.085 -1.792,0.171 -2.731,0.171 -1.109,0.085 -2.389,0.085 -3.584,0.085 -9.8,0.461 -19.428,-2.698 -27.051,-8.875 -0.597,-0.512 -1.109,-1.109 -1.621,-1.621 -0.933,-1.128 -1.735,-2.359 -2.389,-3.669 -0.256,-0.597 -0.512,-1.28 -0.768,-1.963 -0.232,-0.631 -0.376,-1.292 -0.427,-1.963 -0.099,-0.65 -0.156,-1.305 -0.171,-1.963 -0.025,-0.715 0.033,-1.431 0.171,-2.133 0.06,-0.697 0.203,-1.385 0.427,-2.048 0.171,-0.512 0.341,-0.939 0.512,-1.451 0.07,-0.205 0.155,-0.405 0.256,-0.597 0.254,-0.75 0.598,-1.466 1.024,-2.133 0.09,-0.094 0.149,-0.213 0.171,-0.341 0.49,-0.877 1.061,-1.705 1.707,-2.475 l 0.256,-0.256 c 0.118,-0.239 0.294,-0.444 0.512,-0.597 0.548,-0.724 1.147,-1.409 1.792,-2.048 0.862,-0.881 1.661,-1.822 2.389,-2.816 l 0.256,-0.256 c 0,-0.085 0.085,-0.171 0.256,-0.341 l 0.512,-0.768 c 0.363,-0.401 0.651,-0.864 0.853,-1.365 0.341,-0.512 0.597,-1.024 0.939,-1.621 0.341,-0.597 0.597,-1.195 0.939,-1.792 0.278,-0.458 0.507,-0.944 0.683,-1.451 0.601,-1.447 1.114,-2.929 1.536,-4.437 l 0.256,-0.512 c 0.427,-1.707 0.768,-3.328 1.109,-5.035 v -0.085 c 0.085,-0.512 0.171,-1.109 0.256,-1.707 0.171,-1.194 0.256,-2.389 0.341,-3.499 0.099,-0.593 0.156,-1.191 0.171,-1.792 0,-0.512 0.085,-0.939 0.085,-1.451 v -0.939 c 0.071,-0.365 0.099,-0.738 0.085,-1.109 v -1.451 c 0.021,-2.195 -0.093,-4.389 -0.341,-6.571 13.926,12.059 22.49,29.157 23.808,47.531 0.082,3.47 -0.408,6.93 -1.451,10.24 2.987,4.438 5.889,9.046 8.79,13.739 z"
   id="path867" />

	</g>

	<path
   d="m 72.535,298.667 c 0,76.175 9.2,90.258 18.2,93.983 1.489,0.621 3.087,0.941 4.7,0.942 0.48,-0.024 0.958,-0.078 1.431,-0.16 2.857,6.381 6.132,12.567 9.803,18.517 V 473.6 c -0.069,16.319 10.226,30.883 25.633,36.263 15.407,5.38 32.53,0.39 42.634,-12.425 7.702,9.832 19.746,15.25 32.213,14.492 12.467,-0.759 23.764,-7.598 30.217,-18.292 4.755,0.758 9.556,1.191 14.37,1.296 25.239,0.083 50.359,3.468 74.721,10.067 14.576,4.141 29.602,6.491 44.746,7 20.525,0 68.267,-9.975 68.267,-102.4 0,-42.711 -21.251,-119.394 -60.598,-179.18 0.569,-2.816 0.858,-5.681 0.865,-8.554 -1.367,-20.961 -11.091,-40.495 -26.991,-54.221 0.941,0.104 1.821,0.16 2.79,0.288 14.993,2.01 29.078,-7.642 32.615,-22.35 3.536,-14.708 -4.622,-29.708 -18.89,-34.734 -11.039,-4.122 -22.555,-6.832 -34.274,-8.063 1.318,-5.726 2.016,-11.578 2.083,-17.454 0,-23.175 -16.896,-44.175 -42.667,-53.833 v -5.9 c 0,-14.138 -11.462,-25.6 -25.6,-25.6 -14.138,0 -25.6,11.462 -25.6,25.6 v 1.467 c -2.829,0.492 -5.581,1.108 -8.254,1.85 L 230.499,17.8 C 226.005,6.561 213.493,0.814 202.04,4.728 190.587,8.642 184.208,20.845 187.533,32.483 l 6.867,24.041 c -4.298,5.692 -7.988,11.818 -11.01,18.279 C 183.044,55.557 177.817,36.715 168.2,20.04 161.044,7.68 147.863,0.048 133.581,0 h -33.508 c -6.585,0.006 -12.6,3.738 -15.53,9.636 -2.93,5.898 -2.271,12.945 1.701,18.198 9.317,12.425 20.425,31 20.425,48.967 V 191.832 C 90.71,208.921 72.535,240.973 72.535,298.667 Z m 17.066,0 c 0,-54.881 17.318,-83.171 31.271,-97.081 0.097,-0.087 0.227,-0.118 0.32,-0.211 13.65,-13.467 26.879,-16.158 32,-14.725 0.121,0.035 0.248,0.009 0.37,0.037 0.148,0.053 0.371,0.087 0.488,0.146 11.242,5.439 22.846,10.094 34.729,13.933 1.456,0.501 2.68,0.941 4.007,1.407 1.285,0.449 2.583,0.904 3.804,1.346 5.003,1.637 9.814,3.812 14.348,6.487 0.23,0.264 0.378,0.575 0.629,0.827 1.057,0.98 2.175,1.892 3.347,2.73 0.42,0.485 0.8,1.003 1.136,1.549 0.07,0.124 0.133,0.268 0.2,0.4 0.372,0.758 0.659,1.554 0.856,2.374 0.053,0.212 0.123,0.388 0.168,0.616 0.22,1.107 0.329,2.234 0.326,3.363 0,29.533 -47.5,68.342 -73.021,89.192 -8.05,6.575 -14.408,11.767 -18.346,15.708 -1.056,1.057 -2.051,2.174 -2.979,3.346 -0.085,0.108 -0.152,0.224 -0.236,0.332 -5.438,7.892 -9.248,16.79 -11.206,26.172 -0.953,3.76 -2.124,7.462 -3.508,11.085 l -0.052,0.127 c -1.936,4.629 -4.095,6.858 -7.778,7.413 -0.059,0.009 -0.104,0.054 -0.162,0.064 -0.722,0.104 -1.45,0.158 -2.179,0.162 -0.382,0 -0.763,0.025 -1.142,0.075 -2.394,-4.991 -7.39,-21.983 -7.39,-76.874 z m 55.467,196.266 c -11.777,-0.012 -21.321,-9.556 -21.333,-21.333 v -38.93 c 12.336,13.558 26.736,25.084 42.667,34.151 v 4.779 c -0.013,11.777 -9.557,21.321 -21.334,21.333 z m 59.733,0 c -10.212,-0.015 -18.984,-7.258 -20.93,-17.283 11.213,5.045 22.839,9.116 34.751,12.166 -3.84,3.315 -8.748,5.132 -13.821,5.117 z m 29.647,-19.058 c -0.077,-0.017 -0.135,-0.077 -0.213,-0.091 -19.301,-3.783 -37.926,-10.437 -55.254,-19.742 -2.318,-1.247 -4.549,-2.569 -6.774,-3.896 -0.956,-0.572 -1.911,-1.123 -2.865,-1.719 -1.842,-1.147 -3.63,-2.341 -5.406,-3.544 -1.451,-0.984 -2.894,-2 -4.329,-3.047 -1.57,-1.141 -3.138,-2.282 -4.651,-3.469 -1.79,-1.401 -3.541,-2.898 -5.293,-4.398 -2.203,-1.893 -4.338,-3.838 -6.406,-5.835 -1.406,-1.352 -2.807,-2.711 -4.176,-4.135 -1.516,-1.585 -2.99,-3.202 -4.421,-4.851 -1.004,-1.145 -1.975,-2.342 -2.952,-3.531 -2.74,-3.353 -5.32,-6.821 -7.738,-10.405 -4.107,-5.959 -7.739,-12.232 -10.86,-18.761 0.169,-0.11 0.299,-0.257 0.465,-0.371 1.056,-0.712 2.052,-1.508 2.979,-2.381 0.503,-0.482 0.949,-1.006 1.408,-1.524 0.653,-0.725 1.267,-1.484 1.841,-2.274 0.383,-0.534 0.766,-1.061 1.116,-1.618 0.598,-0.951 1.142,-1.937 1.654,-2.945 0.486,-0.954 0.933,-1.916 1.354,-2.901 0.326,-0.766 0.658,-1.527 0.951,-2.307 0.401,-1.064 0.764,-2.116 1.11,-3.183 l 0.2,-0.618 c 0.779,-2.456 1.484,-4.892 2.105,-7.175 1.371,-6.167 3.551,-12.126 6.483,-17.721 0.983,-1.671 2.167,-3.214 3.526,-4.596 3.333,-3.333 9.7,-8.533 17.075,-14.558 1.836,-1.5 3.734,-3.052 5.667,-4.639 3.303,12.666 5.102,25.677 5.358,38.764 -1.103,16.897 7.296,33.001 21.783,41.767 1.17,0.587 2.462,0.892 3.771,0.892 3.918,-0.018 7.323,-2.697 8.262,-6.501 0.939,-3.804 -0.827,-7.76 -4.287,-9.599 -6.661,-4.426 -11.014,-11.58 -11.883,-19.53 5.432,1.052 10.955,1.557 16.488,1.505 4.713,0.002 8.535,-3.816 8.538,-8.529 0.002,-4.713 -3.816,-8.535 -8.529,-8.538 -5.913,0.1 -11.805,-0.747 -17.45,-2.509 -0.026,-0.083 -0.085,-0.148 -0.113,-0.23 -1.196,-13.403 -3.717,-26.653 -7.527,-39.558 l 0.639,-0.555 c 1.595,-1.373 3.19,-2.746 4.792,-4.159 0.806,-0.711 1.607,-1.447 2.413,-2.167 1.405,-1.256 2.809,-2.506 4.206,-3.79 0.863,-0.794 1.709,-1.609 2.567,-2.413 1.324,-1.24 2.652,-2.472 3.958,-3.735 0.898,-0.868 1.768,-1.758 2.655,-2.636 1.241,-1.229 2.488,-2.452 3.701,-3.699 0.891,-0.916 1.743,-1.85 2.616,-2.775 l 0.206,-0.218 c 1.564,5.515 4.432,10.572 8.363,14.744 4.002,5.734 6.112,12.575 6.033,19.567 0,4.713 3.82,8.533 8.533,8.533 4.713,0 8.533,-3.821 8.533,-8.533 0,-0.327 -0.025,-1.158 -0.078,-2.194 2.686,1.323 5.619,2.07 8.611,2.194 4.728,0.007 8.574,-3.805 8.608,-8.533 0.015,-2.255 -0.87,-4.422 -2.458,-6.022 -1.588,-1.6 -3.749,-2.501 -6.004,-2.503 -7.445,-3.534 -14.134,-8.477 -19.697,-14.557 l -0.015,-0.018 c -4.006,-5.741 -6.115,-12.592 -6.033,-19.592 l -0.019,-0.092 c 0.731,-0.991 1.391,-1.993 2.086,-2.99 0.862,-1.236 1.741,-2.469 2.544,-3.713 0.687,-1.065 1.296,-2.136 1.936,-3.206 0.739,-1.235 1.496,-2.468 2.169,-3.709 0.591,-1.091 1.096,-2.186 1.632,-3.28 0.602,-1.229 1.221,-2.454 1.749,-3.686 0.476,-1.109 0.857,-2.22 1.269,-3.331 0.455,-1.224 0.926,-2.448 1.299,-3.675 0.341,-1.117 0.58,-2.234 0.851,-3.352 0.295,-1.223 0.606,-2.446 0.813,-3.669 0.19,-1.123 0.273,-2.243 0.384,-3.364 0.091,-0.916 0.278,-1.834 0.315,-2.749 0.667,0.24 1.378,0.423 2.055,0.654 0.996,0.336 1.988,0.641 2.997,0.954 1.867,0.581 3.714,1.132 5.611,1.627 0.771,0.2 1.524,0.364 2.293,0.548 2.028,0.488 4.03,0.951 6.035,1.323 0.894,0.167 1.734,0.268 2.612,0.41 1.76,0.282 3.518,0.578 5.212,0.754 2.442,0.275 4.897,0.422 7.354,0.439 4.372,0 8.586,-0.117 12.719,-0.292 1.24,-0.053 2.443,-0.129 3.661,-0.197 3.025,-0.169 5.976,-0.387 8.854,-0.653 0.695,-0.065 1.452,-0.087 2.137,-0.158 l 0.009,0.047 c 0.142,1.521 0.441,3.023 0.893,4.482 0.068,0.223 0.14,0.445 0.215,0.667 0.171,0.509 0.283,1.026 0.492,1.529 0.279,0.672 0.703,1.279 1.042,1.925 0.155,0.296 0.23,0.607 0.399,0.9 0.107,0.185 0.262,0.347 0.374,0.53 0.525,0.842 1.099,1.654 1.718,2.43 0.39,0.498 0.785,0.989 1.214,1.465 0.667,0.737 1.371,1.44 2.109,2.106 0.516,0.469 1.052,0.919 1.607,1.361 0.773,0.614 1.567,1.205 2.414,1.765 0.651,0.432 1.332,0.832 2.024,1.23 0.859,0.494 1.721,0.979 2.64,1.42 0.797,0.384 1.634,0.721 2.473,1.064 0.909,0.371 1.806,0.747 2.762,1.068 0.973,0.328 1.994,0.591 3.011,0.865 0.908,0.244 1.794,0.514 2.735,0.714 0.478,0.102 0.968,0.181 1.454,0.272 -7.49,22.462 -12.287,45.734 -14.288,69.327 0.007,1.985 0.14,3.967 0.398,5.935 -1.453,4.29 -8.459,19.665 -17.465,19.665 -4.713,0 -8.533,3.82 -8.533,8.533 0,4.713 3.82,8.533 8.533,8.533 10.249,-0.513 19.6,-6.004 25.042,-14.704 1.942,3.676 4.023,7.199 6.042,10.562 6.467,8.691 10.469,18.966 11.583,29.742 -0.761,17.359 -6.764,34.079 -17.217,47.958 -9.021,12.347 -14.763,26.78 -16.69,41.95 -16.964,-3.109 -34.18,-4.64 -51.427,-4.575 -5.809,-0.171 -11.593,-0.838 -17.287,-1.997 z m 136.753,19.058 c -13.794,-0.525 -27.474,-2.716 -40.742,-6.525 -3.375,-0.814 -6.867,-1.642 -10.431,-2.464 1.251,-13.269 6.221,-25.916 14.339,-36.487 8.584,-12.374 14.755,-26.258 18.189,-40.922 7.222,5.725 13.479,12.57 18.532,20.277 -0.155,6.274 -2.221,12.351 -5.921,17.421 -2.188,2.149 -3.055,5.307 -2.27,8.271 0.785,2.965 3.1,5.28 6.065,6.065 2.965,0.785 6.122,-0.082 8.271,-2.27 3.135,-3.286 5.564,-7.179 7.136,-11.44 3.418,3.148 7.797,5.053 12.431,5.406 4.557,-10e-4 8.309,-3.581 8.524,-8.133 0.215,-4.552 -3.184,-8.47 -7.72,-8.9 -0.704,-0.242 -5.104,-2.116 -10.237,-12.383 -8.614,-13.853 -20.028,-25.754 -33.51,-34.938 -1.982,-12.188 -6.678,-23.775 -13.74,-33.904 -6.468,-8.691 -10.469,-18.966 -11.583,-29.742 0.099,-5.152 0.592,-10.288 1.475,-15.364 7.947,15.739 22.143,27.414 39.12,32.172 10.083,2.525 17.725,15.767 19.808,20.642 1.832,4.342 6.837,6.378 11.179,4.546 4.342,-1.832 6.378,-6.837 4.546,-11.179 -1.092,-2.592 -11.279,-25.533 -31.392,-30.558 -28.379,-7.1 -36.296,-44.242 -36.375,-44.617 -0.054,-0.268 -0.227,-0.47 -0.305,-0.727 2.542,-9.567 5.097,-18.033 6.752,-23.323 4.733,-0.2 9.426,-0.965 13.977,-2.28 0.337,-0.1 0.674,-0.19 1.009,-0.297 0.688,-0.226 1.365,-0.497 2.046,-0.763 3.31,-1.2 6.393,-2.95 9.12,-5.177 34.417,55.708 52.904,123.8 52.904,162.258 0.003,74.252 -32.076,85.335 -51.197,85.335 z m -8.533,-273.066 c 0.073,2.119 -0.086,4.24 -0.473,6.324 -0.225,0.382 -0.419,0.78 -0.581,1.193 -0.439,1.623 -1.29,3.104 -2.472,4.299 -0.091,0.086 -0.195,0.167 -0.29,0.251 -0.433,0.381 -0.893,0.73 -1.377,1.043 -0.263,0.173 -0.52,0.347 -0.81,0.511 -0.779,0.441 -1.592,0.821 -2.43,1.136 -0.267,0.102 -0.585,0.186 -0.869,0.282 -0.97,0.321 -1.955,0.592 -2.953,0.809 -0.318,0.071 -0.619,0.147 -0.954,0.212 -1.42,0.275 -3.021,0.5 -4.814,0.667 -0.341,0.032 -0.711,0.054 -1.067,0.082 -1.963,0.152 -4.076,0.257 -6.511,0.257 -1.578,0 -3.097,-0.078 -4.552,-0.221 -0.11,-0.01 -0.206,-0.034 -0.316,-0.045 -1.339,-0.143 -2.633,-0.33 -3.856,-0.578 l -0.287,-0.071 c -1.195,-0.252 -2.339,-0.543 -3.409,-0.881 -0.203,-0.064 -0.38,-0.143 -0.578,-0.209 -0.909,-0.305 -1.784,-0.629 -2.592,-0.986 -0.355,-0.158 -0.666,-0.332 -1,-0.498 -0.569,-0.282 -1.132,-0.563 -1.64,-0.866 -0.444,-0.267 -0.837,-0.546 -1.231,-0.826 -0.31,-0.218 -0.627,-0.433 -0.906,-0.658 -0.409,-0.334 -0.798,-0.691 -1.166,-1.07 -0.164,-0.165 -0.331,-0.329 -0.478,-0.495 -0.33,-0.376 -0.628,-0.777 -0.893,-1.201 -0.097,-0.155 -0.194,-0.309 -0.276,-0.463 -0.143,-0.26 -0.268,-0.53 -0.373,-0.807 -0.227,-0.656 -0.32,-1.351 -0.275,-2.043 0.017,-0.32 0.059,-0.639 0.126,-0.953 0.088,-0.384 0.205,-0.761 0.35,-1.127 0.178,-0.528 0.401,-1.04 0.667,-1.529 l 0.116,-0.182 c 0.824,-1.403 1.827,-2.692 2.985,-3.834 l 0.004,-0.005 0.003,-0.004 0.009,-0.013 0.005,-0.006 0.003,-0.002 c 1.346,-1.38 2.582,-2.862 3.699,-4.432 0.195,-0.265 0.452,-0.497 0.639,-0.767 0.395,-0.563 0.686,-1.173 1.049,-1.752 0.036,-0.055 0.087,-0.093 0.121,-0.149 0.204,-0.331 0.359,-0.684 0.554,-1.019 0.929,-1.571 1.758,-3.198 2.484,-4.872 0.029,-0.064 0.08,-0.11 0.107,-0.175 0.157,-0.375 0.26,-0.763 0.408,-1.14 0.592,-1.514 1.15,-3.032 1.594,-4.591 0.026,-0.082 0.083,-0.144 0.107,-0.228 l 0.017,-0.05 c 0.171,-0.612 0.262,-1.239 0.409,-1.856 0.321,-1.327 0.645,-2.645 0.876,-3.986 h 0.003 l -0.001,-0.02 c 0.106,-0.617 0.168,-1.235 0.256,-1.854 l 0.045,-0.134 v -0.009 l 0.004,-0.025 c 0.092,-0.667 0.179,-1.333 0.258,-2 l 0.014,-0.131 0.035,-0.289 c 0.117,-1.122 0.189,-2.228 0.255,-3.343 0.005,-0.063 0.043,-0.115 0.046,-0.179 0.042,-0.65 0.071,-1.3 0.096,-1.95 l 0.007,-0.327 0.01,-0.448 0.018,-0.774 c 0.004,-0.283 0.018,-0.566 0.019,-0.848 v -0.07 l -0.003,-0.012 c 0,-0.214 -0.016,-0.418 -0.016,-0.631 l 0.031,-0.14 c 0.003,-0.095 -0.041,-0.189 -0.043,-0.285 l -0.01,-0.393 c -0.011,-1.354 -0.036,-2.66 -0.101,-3.932 -0.023,-0.429 -0.048,-0.847 -0.076,-1.272 -0.049,-0.763 -0.075,-1.579 -0.137,-2.302 18.374,9.769 30.559,28.165 32.387,48.892 z m 8.346,-87.8 c 1.347,3.3 1.194,7.022 -0.421,10.2 -2.384,4.758 -7.532,7.471 -12.804,6.75 -13.875,-2.835 -28.272,-1.64 -41.49,3.442 l -0.039,0.014 -0.075,0.027 c -1.011,0.531 -1.903,1.264 -2.62,2.152 -0.078,0.092 -0.201,0.128 -0.276,0.223 -0.103,0.131 -0.112,0.306 -0.207,0.442 -0.563,0.802 -0.981,1.695 -1.236,2.641 -0.052,0.194 -0.143,0.364 -0.182,0.56 -0.207,0.992 -0.234,2.013 -0.079,3.015 l 1.483,8.842 c 0.089,0.782 0.16,1.686 0.234,2.569 0.055,0.686 0.107,1.37 0.146,2.083 0.044,0.753 0.074,1.532 0.097,2.329 0.036,1.546 0.033,3.123 -0.035,4.727 -0.013,0.304 -0.024,0.608 -0.04,0.914 -0.104,1.957 -0.31,3.908 -0.616,5.844 l -0.057,0.291 c -0.307,1.801 -0.731,3.581 -1.269,5.327 -0.051,0.168 -0.109,0.333 -0.164,0.501 -0.084,0.255 -0.181,0.505 -0.271,0.758 -0.474,1.35 -1.044,2.664 -1.706,3.933 -0.257,0.489 -0.505,0.982 -0.791,1.45 -0.871,1.501 -1.919,2.892 -3.12,4.144 l -0.037,0.047 -0.134,0.154 c -1.112,1.124 -2.154,2.314 -3.12,3.565 l -0.05,0.057 -0.009,0.018 -0.056,0.064 c -0.464,0.067 -0.931,0.132 -1.401,0.196 -4.375,0.59 -8.949,1.069 -13.781,1.392 -0.64,0.043 -1.309,0.066 -1.957,0.104 -5.163,0.303 -10.509,0.494 -16.13,0.494 -1.795,0 -3.704,-0.134 -5.652,-0.332 -0.92,-0.095 -1.885,-0.246 -2.838,-0.382 -1.031,-0.145 -2.059,-0.287 -3.106,-0.474 -1.174,-0.211 -2.364,-0.459 -3.558,-0.72 -0.83,-0.181 -1.658,-0.365 -2.487,-0.567 -1.356,-0.331 -2.709,-0.688 -4.059,-1.07 -0.546,-0.155 -1.084,-0.316 -1.623,-0.478 -6.396,-1.821 -12.527,-4.47 -18.238,-7.879 -1.045,-1.083 -2.165,-2.092 -3.351,-3.019 -0.023,-0.299 -0.028,-0.6 -0.015,-0.9 0.028,-0.185 0.132,-0.34 0.148,-0.53 0.449,-3.453 1.386,-6.824 2.784,-10.013 0.081,-0.197 0.154,-0.385 0.238,-0.586 0.718,-1.731 1.584,-3.578 2.536,-5.481 0.232,-0.464 0.469,-0.932 0.715,-1.407 1.037,-1.999 2.167,-4.057 3.436,-6.184 l 0.329,-0.542 c 4.809,-7.911 10.295,-15.391 16.395,-22.356 0.209,-0.239 0.424,-0.477 0.636,-0.716 2.132,-2.413 4.347,-4.802 6.671,-7.125 l 0.011,-0.011 c 2.249,-2.233 4.615,-4.344 7.087,-6.327 0.44,-0.354 0.879,-0.744 1.319,-1.083 1.952,-1.498 3.978,-2.897 6.071,-4.192 0.847,-0.529 1.695,-1.066 2.543,-1.547 1.756,-1.002 3.518,-1.886 5.283,-2.695 1.083,-0.495 2.167,-0.959 3.253,-1.39 1.673,-0.661 3.35,-1.27 5.039,-1.789 1.069,-0.331 2.14,-0.614 3.211,-0.894 1.82,-0.469 3.644,-0.911 5.492,-1.25 0.791,-0.148 1.586,-0.258 2.379,-0.384 2.169,-0.337 4.346,-0.644 6.564,-0.846 0.34,-0.032 0.683,-0.049 1.024,-0.079 5.463,-0.455 11.081,-0.591 16.943,-0.61 l 0.016,-0.003 c 1.508,-0.006 3.02,-0.008 4.538,-0.006 12,0.585 23.826,3.107 35.021,7.467 3.404,1.178 6.126,3.782 7.458,7.131 z M 210.293,64.025 c 1.875,-2.175 2.528,-5.148 1.738,-7.908 L 203.939,27.8 c -0.827,-2.901 0.762,-5.941 3.616,-6.918 2.854,-0.977 5.973,0.452 7.097,3.252 l 7.446,18.608 c 0.841,2.103 2.483,3.785 4.565,4.676 2.082,0.891 4.433,0.918 6.535,0.074 6.181,-2.414 12.682,-3.911 19.296,-4.442 4.401,-0.394 7.774,-4.081 7.775,-8.5 V 25.6 c 0,-4.713 3.82,-8.533 8.533,-8.533 4.713,0 8.533,3.821 8.533,8.533 v 12.058 c 0.001,3.8 2.513,7.142 6.163,8.2 21.833,6.308 36.504,22.175 36.504,39.475 -0.071,5.797 -0.886,11.561 -2.425,17.15 l -0.154,0.006 c -5.75,0.089 -11.491,0.482 -17.199,1.179 -0.383,0.048 -0.767,0.088 -1.15,0.14 -2.42,0.333 -4.855,0.765 -7.299,1.276 -0.858,0.177 -1.717,0.369 -2.574,0.57 -2.211,0.525 -4.429,1.118 -6.654,1.828 -1.026,0.325 -2.05,0.715 -3.075,1.082 -1.583,0.571 -3.168,1.201 -4.755,1.887 -1.343,0.577 -2.684,1.19 -4.025,1.853 -1.819,0.898 -3.64,1.884 -5.461,2.957 -0.534,0.315 -1.069,0.538 -1.603,0.868 2.421,-7.287 6.577,-13.73 13.708,-13.73 4.713,0 8.533,-3.821 8.533,-8.533 0,-4.713 -3.821,-8.533 -8.533,-8.533 -25.347,0 -33.207,28.471 -34.051,47.679 -1.049,1.095 -2.095,2.209 -3.148,3.368 -0.71,0.78 -1.406,1.561 -2.102,2.352 -1.165,1.327 -2.321,2.686 -3.47,4.079 -0.782,0.943 -1.568,1.876 -2.326,2.829 -1.542,1.931 -3.052,3.904 -4.531,5.918 -0.349,0.476 -0.683,0.95 -1.025,1.427 -7.995,10.47 -14.157,22.219 -18.223,34.749 h -5.262 c -0.216,-0.079 -0.468,-0.162 -0.685,-0.241 -1.12,-0.406 -2.292,-0.809 -3.439,-1.21 -1.535,-0.538 -2.995,-1.06 -4.617,-1.624 -3.421,-1.18 -7.041,-2.431 -10.805,-3.811 l -0.182,-0.067 v -9.347 C 183.468,120.85 192.493,84.708 210.293,64.025 Z M 100.072,17.067 h 33.508 c 8.195,0.04 15.752,4.428 19.85,11.525 8.482,14.651 12.956,31.279 12.971,48.208 v 88.317 c -4.322,1.401 -8.179,2.837 -11.769,4.383 -10.922,-0.85 -21.81,2.017 -30.897,8.135 V 76.8 c 0,-22.667 -12.967,-44.708 -23.663,-59.733 z"
   id="path871" />

</g>
      <g
         id="g875">
</g>
      <g
         id="g877">
</g>
      <g
         id="g879">
</g>
      <g
         id="g881">
</g>
      <g
         id="g883">
</g>
      <g
         id="g885">
</g>
      <g
         id="g887">
</g>
      <g
         id="g889">
</g>
      <g
         id="g891">
</g>
      <g
         id="g893">
</g>
      <g
         id="g895">
</g>
      <g
         id="g897">
</g>
      <g
         id="g899">
</g>
      <g
         id="g901">
</g>
      <g
         id="g903">
</g>
    </g>
  </g>
  <g
     inkscape:groupmode="layer"
     id="layer1"
     inkscape:label="Layer 1"
     style="display:inline">
    <path
       d="m 170.79801,512.14349 h 274.86328 c 36.39453,0 66,-29.60547 66,-66 0,-32.29298 -23.32031,-59.22657 -54,-64.88673 l -20,-1.11328 H 183.42692 c -0.49219,0 -0.97657,0.0469 -1.45313,0.11719 -0.96094,-0.0704 -1.92969,-0.11719 -2.91016,-0.11719 -21.26953,0 -37.93359,17.06251 -37.93359,38.83985 0,23.0586 14.93359,39.16016 36.32031,39.16016 5.52344,0 10,-4.47656 10,-10.00001 0,-5.52343 -4.47656,-9.99999 -10,-9.99999 -10.21875,0 -16.32031,-7.16406 -16.32031,-19.16016 0,-12.23829 9.24219,-18.83985 17.93359,-18.83985 15.58594,0 28.75391,18.59376 28.75391,40.60157 0,28.33985 -16.60547,51.39844 -37.01953,51.39844 z m 274.86328,-20 H 210.45426 c 0.51562,-0.625 1.03125,-1.25001 1.53125,-1.90234 9.58594,-12.51563 15.125,-28.77735 15.76953,-46.09766 h 155.90625 c 5.52344,0 10,-4.47657 10,-10 0,-5.52344 -4.47656,-10 -10,-10 H 225.94254 c -2.07031,-9.03125 -5.78125,-17.21485 -10.71875,-24.00001 h 230.4375 c 25.36328,0 46,20.63673 46,46.00001 0,25.36327 -20.63672,46 -46,46 z"
       id="path1824"
       style="stroke-width:0.75"
       sodipodi:nodetypes="cssccscssssssssccscccsssccsss" />
    <path
       style="opacity:0.93;fill:#feda9b;fill-opacity:1;stroke:#feda9b;stroke-width:0.484009;stroke-linecap:round;stroke-linejoin:round;stroke-opacity:1"
       d="m 214.1887,487.36591 c 7.40587,-10.9231 11.72868,-23.1222 13.32947,-37.61615 l 0.57467,-5.20309 h 77.59324 c 54.92236,0 78.32352,-0.15662 80.0927,-0.53604 3.53638,-0.75842 6.86886,-4.02718 7.69193,-7.54486 1.27957,-5.46867 -2.26237,-11.03102 -7.77736,-12.21377 -1.65798,-0.35558 -27.02135,-0.51772 -80.9846,-0.51772 h -78.57058 l -1.31409,-4.23508 c -2.13405,-6.87763 -4.57947,-12.1355 -8.24876,-17.73554 l -0.83548,-1.2751 119.24722,0.12884 119.24722,0.12883 3.63007,1.1076 c 15.47319,4.72109 27.65866,16.93362 31.97364,32.04464 1.29743,4.54362 1.83048,15.45154 0.97586,19.96943 -1.72523,9.12032 -5.74715,17.09381 -11.86736,23.52709 -7.2681,7.6399 -15.48734,12.06751 -25.71132,13.85043 -3.68582,0.64275 -19.01879,0.73412 -123.19215,0.73412 H 211.06066 Z"
       id="path11978" />
    <path
       d="m 422.86232,423.91231 c -2.63281,0 -5.21093,1.07031 -7.07031,2.92969 -1.85937,1.85937 -2.92969,4.4414 -2.92969,7.07031 0,2.62891 1.06641,5.21094 2.92969,7.07031 1.85938,1.85938 4.4375,2.92969 7.07031,2.92969 2.62891,0 5.20703,-1.07031 7.06641,-2.92969 1.86328,-1.85937 2.93359,-4.4414 2.93359,-7.07031 0,-2.62891 -1.07031,-5.21094 -2.93359,-7.07031 -1.85938,-1.85938 -4.4375,-2.92969 -7.06641,-2.92969 z m 0,0"
       id="path18-2" />
    <path
       style="opacity:0.93;fill:#feda9b;fill-opacity:1;stroke:#feda9b;stroke-width:0.322673;stroke-linecap:round;stroke-linejoin:round;stroke-opacity:1"
       d="m 232.60587,655.26344 c 0.0887,-0.30839 1.6514,-10.47079 3.47274,-22.58311 2.02991,-13.49941 3.44629,-22.02241 3.65977,-22.02241 0.19154,0 1.36057,-0.4877 2.59786,-1.08377 2.71791,-1.30939 5.28072,-3.88644 6.54247,-6.57885 0.77952,-1.66338 0.86989,-2.22496 0.86989,-5.40562 0,-3.32226 -0.0659,-3.68859 -1.03033,-5.72445 -1.3187,-2.78378 -3.6672,-5.14846 -6.36888,-6.41272 -1.74651,-0.8173 -2.79036,-1.03723 -6.69465,-1.41052 -6.96808,-0.66622 -10.31888,-2.07575 -14.14997,-5.95224 -2.47693,-2.50629 -4.39852,-6.10744 -5.52134,-10.34729 -0.62032,-2.34237 -0.72886,-3.59051 -0.74357,-8.55082 -0.0155,-5.21676 0.0598,-6.0545 0.73881,-8.22815 2.60612,-8.34215 8.70071,-14.35193 16.7371,-16.50421 3.47581,-0.93087 8.93231,-0.92279 12.51542,0.0186 12.65734,3.32527 23.68506,15.87182 28.74799,32.70741 5.0196,16.69151 3.5089,37.81814 -3.96037,55.38438 -7.08329,16.65849 -19.63348,28.88584 -33.1205,32.26852 -4.08199,1.0238 -4.47574,1.06281 -4.29244,0.4253 z"
       id="path12533"
       transform="scale(0.75)" />
  </g>
</svg>
